<svg width="70" height="70" viewBox="0 0 70 70" fill="none" xmlns="http://www.w3.org/2000/svg">
<path d="M62.1373 32.6842H9.11087C8.37061 32.6842 7.77051 33.2843 7.77051 34.0246V34.124C7.77051 34.8643 8.37061 35.4644 9.11087 35.4644H62.1373C62.8775 35.4644 63.4776 34.8643 63.4776 34.124V34.0246C63.4776 33.2843 62.8775 32.6842 62.1373 32.6842Z" fill="white"/>
<path d="M22.3341 18.8881L8.21591 33.0063C7.79005 33.4322 7.79005 34.1226 8.21591 34.5485L8.27311 34.6057C8.69897 35.0315 9.38942 35.0315 9.81528 34.6057L23.9335 20.4875C24.3594 20.0616 24.3594 19.3712 23.9335 18.9453L23.8763 18.8881C23.4504 18.4622 22.76 18.4622 22.3341 18.8881Z" fill="white"/>
<path d="M23.8397 47.5347L9.72152 33.4165C9.29567 32.9906 8.60521 32.9906 8.17936 33.4165L8.12216 33.4737C7.6963 33.8995 7.6963 34.59 8.12216 35.0158L22.2404 49.1341C22.6662 49.5599 23.3567 49.5599 23.7825 49.1341L23.8397 49.0769C24.2656 48.651 24.2656 47.9605 23.8397 47.5347Z" fill="white"/>
</svg>
