<svg width="35" height="35" viewBox="0 0 35 35" fill="none" xmlns="http://www.w3.org/2000/svg">
<g clip-path="url(#clip0_8_50)">
<path d="M16.8273 0.441589L16.4555 1.77802L16.4432 2.01932L16.5156 3.09257L14.6904 3.33319L14.4819 2.27772L14.4081 2.04735L13.7033 0.85243L12.4257 1.19491L12.4134 2.58192L12.464 2.81845L12.8112 3.83632L11.1104 4.5411L10.636 3.57518L10.5048 3.37216L9.51494 2.40077L8.36992 3.06181L8.7165 4.40507L8.82656 4.6204L9.42607 5.51386L7.96523 6.63427L7.25703 5.82421L7.07793 5.6622L5.87002 4.97997L4.93486 5.91513L5.61777 7.12304L5.77979 7.30214L6.58984 8.00966L5.46875 9.4705L4.57529 8.87167L4.36064 8.76093L3.0167 8.41434L2.35566 9.56005L3.32773 10.5499L3.53076 10.6811L4.496 11.1549L3.79189 12.8563L2.77334 12.5084L2.5375 12.4578L1.1498 12.4708L0.808008 13.7477L2.00293 14.4525L2.23262 14.527L3.28809 14.7349L3.04814 16.5607L1.97422 16.4883L1.73359 16.5006L0.396484 16.8718V18.1945L1.73359 18.5657L1.97422 18.578L3.04814 18.5056L3.28809 20.3308L2.23262 20.5392L2.00293 20.6131L0.808008 21.3179L1.1498 22.5955L2.5375 22.6078L2.77334 22.5572L3.79189 22.21L4.496 23.9107L3.53076 24.3851L3.32773 24.5164L2.35566 25.5062L3.0167 26.6513L4.36064 26.3047L4.57529 26.1946L5.46875 25.5951L6.58984 27.0559L5.77979 27.7642L5.61777 27.9433L4.93486 29.1512L5.87002 30.0863L7.07793 29.4034L7.25703 29.2414L7.96523 28.4313L9.42607 29.5524L8.82656 30.4459L8.7165 30.6605L8.36992 32.0045L9.51494 32.6655L10.5048 31.6934L10.636 31.4904L11.1104 30.5252L12.8112 31.2293L12.464 32.2478L12.4134 32.4837L12.4257 33.8714L13.7033 34.2132L14.4081 33.0183L14.4819 32.7886L14.6904 31.7331L16.5156 31.973L16.4432 33.047L16.4555 33.2876L16.8273 34.6247H18.1494L18.5206 33.2876L18.5329 33.047L18.4605 31.973L20.2863 31.7331L20.4941 32.7886L20.5687 33.0183L21.2734 34.2132L22.5504 33.8714L22.5634 32.4837L22.5128 32.2478L22.1648 31.2293L23.8663 30.5252L24.34 31.4904L24.4713 31.6934L25.4611 32.6655L26.6068 32.0045L26.2603 30.6605L26.1502 30.4459L25.5507 29.5524L27.0115 28.4313L27.719 29.2414L27.8981 29.4034L29.1061 30.0863L30.0412 29.1512L29.359 27.9433L29.197 27.7642L28.3869 27.0559L29.5073 25.5951L30.4008 26.1946L30.6161 26.3047L31.9594 26.6513L32.6204 25.5062L31.649 24.5164L31.446 24.3851L30.4801 23.9107L31.1849 22.21L32.2027 22.5572L32.4393 22.6078L33.8263 22.5955L34.1688 21.3179L32.9738 20.6131L32.7435 20.5392L31.688 20.3308L31.9286 18.5056L33.0019 18.578L33.2432 18.5657L34.5796 18.1945V16.8718L33.2432 16.5006L33.0019 16.4883L31.9286 16.5607L31.688 14.7349L32.7435 14.527L32.9738 14.4525L34.1688 13.7477L33.8263 12.4708L32.4393 12.4578L32.2027 12.5084L31.1849 12.8563L30.4801 11.1549L31.446 10.6811L31.649 10.5499L32.6204 9.56005L31.9594 8.41434L30.6161 8.76093L30.4008 8.87167L29.5073 9.4705L28.3869 8.00966L29.197 7.30214L29.359 7.12304L30.0412 5.91513L29.1061 4.97997L27.8981 5.6622L27.719 5.82421L27.0115 6.63427L25.5507 5.51386L26.1502 4.6204L26.2603 4.40507L26.6068 3.06181L25.4611 2.40077L24.4713 3.37216L24.34 3.57518L23.8663 4.5411L22.1648 3.83632L22.5128 2.81845L22.5634 2.58192L22.5504 1.19491L21.2734 0.85243L20.5687 2.04735L20.4941 2.27772L20.2863 3.33319L18.4605 3.09257L18.5329 2.01932L18.5206 1.77802L18.1494 0.441589H16.8273ZM17.4884 10.2997C19.4068 10.2996 21.2467 11.0617 22.6033 12.4181C23.9598 13.7746 24.722 15.6144 24.7222 17.5328C24.7222 18.4828 24.5351 19.4234 24.1716 20.3011C23.8081 21.1787 23.2752 21.9762 22.6035 22.6479C21.9318 23.3196 21.1343 23.8525 20.2567 24.216C19.379 24.5795 18.4383 24.7666 17.4884 24.7666C16.5384 24.7666 15.5978 24.5795 14.7201 24.216C13.8424 23.8525 13.045 23.3196 12.3733 22.6479C11.7015 21.9762 11.1687 21.1787 10.8052 20.3011C10.4417 19.4234 10.2546 18.4828 10.2546 17.5328C10.2547 15.6144 11.0169 13.7746 12.3735 12.4181C13.7301 11.0617 15.57 10.2996 17.4884 10.2997Z" fill="white"/>
</g>
<defs>
<clipPath id="clip0_8_50">
<rect width="35" height="35" fill="white"/>
</clipPath>
</defs>
</svg>
