<svg width="100" height="100" viewBox="0 0 100 100" fill="none" xmlns="http://www.w3.org/2000/svg">
<path d="M50.393 93.0252C73.9381 93.0252 93.0252 73.9381 93.0252 50.393C93.0252 26.8478 73.9381 7.76072 50.393 7.76072C26.8478 7.76072 7.76074 26.8478 7.76074 50.393C7.76074 73.9381 26.8478 93.0252 50.393 93.0252Z" stroke="white" stroke-width="1.81453"/>
<path id="ico-add-path-fill-1" d="M50.9482 25.7737H49.8375C49.0708 25.7737 48.4492 26.3952 48.4492 27.162V73.624C48.4492 74.3907 49.0708 75.0123 49.8375 75.0123H50.9482C51.7149 75.0123 52.3365 74.3907 52.3365 73.624V27.162C52.3365 26.3952 51.7149 25.7737 50.9482 25.7737Z" fill="white"/>
<path id="ico-add-path-fill-2" d="M25.7734 49.8376V50.9483C25.7734 51.715 26.395 52.3366 27.1617 52.3366H73.6237C74.3905 52.3366 75.0121 51.715 75.0121 50.9483V49.8376C75.0121 49.0709 74.3905 48.4493 73.6237 48.4493H27.1617C26.395 48.4493 25.7734 49.0709 25.7734 49.8376Z" fill="white"/>
</svg>
