<svg width="300" height="300" viewBox="0 0 300 300" fill="none" xmlns="http://www.w3.org/2000/svg">
<g clip-path="url(#clip0_9_33)">
<path d="M172.976 119.135C180.081 80.2679 154.332 43.0002 115.465 35.8955C76.5972 28.7908 39.3295 54.5395 32.2248 93.4068C25.1201 132.274 50.8688 169.542 89.7361 176.647C128.603 183.751 165.871 158.003 172.976 119.135Z" stroke="white" stroke-width="2" stroke-linecap="round" stroke-linejoin="round"/>
<path d="M186.466 142.514C206.482 96.1963 185.161 42.4218 138.843 22.4053C92.5256 2.38879 38.751 23.7102 18.7345 70.0279C-1.28197 116.346 20.0394 170.12 66.3572 190.137C112.675 210.153 166.449 188.832 186.466 142.514Z" stroke="white" stroke-width="2" stroke-linecap="round" stroke-linejoin="round"/>
<path d="M111.905 55.3681C121.55 57.1311 130.512 61.5482 137.785 68.1235C145.058 74.6987 150.354 83.1715 153.077 92.5902" stroke="white" stroke-width="2" stroke-linecap="round" stroke-linejoin="round"/>
<path d="M161.929 178.266L177.682 162.513C178.321 161.873 179.405 161.927 180.111 162.633L284.907 267.429C286.111 268.633 283.361 279.125 281.159 281.327C278.918 283.568 268.074 286.72 266.845 285.491L162.049 180.695C161.343 179.989 161.289 178.905 161.929 178.266Z" stroke="white" stroke-width="2" stroke-linecap="round" stroke-linejoin="round"/>
<path d="M188.674 206.4L206.076 188.997" stroke="white" stroke-width="2" stroke-linecap="round" stroke-linejoin="round"/>
</g>
<defs>
<clipPath id="clip0_9_33">
<rect width="300" height="300" fill="white"/>
</clipPath>
</defs>
</svg>
