<svg width="300" height="300" viewBox="0 0 300 300" fill="none" xmlns="http://www.w3.org/2000/svg">
<path d="M53.1099 31.3465H133.2L148.827 40.303L165.1 31.3465H244.451C245.051 31.3465 245.534 31.8295 245.534 32.4295V185.262C245.534 185.862 245.051 186.345 244.451 186.345H165.493L148.616 196.784L133.408 186.345H53.1099C52.5099 186.345 52.0269 185.862 52.0269 185.262V32.4295C52.0269 31.8295 52.5099 31.3464 53.1099 31.3465Z" stroke="white" stroke-width="1.5" stroke-linecap="round" stroke-linejoin="round"/>
<path d="M148.781 40.491V195.574" stroke="white" stroke-width="1.5" stroke-linecap="round" stroke-linejoin="round"/>
<path d="M246.977 39.5997H261.39C262.368 39.5997 263.155 40.4219 263.155 41.4432V197.533C263.155 198.554 262.368 199.377 261.39 199.377H37.4443C36.4666 199.377 35.6794 198.554 35.6794 197.533V41.4432C35.6794 40.4219 36.4666 39.5997 37.4443 39.5997H50.1908" stroke="white" stroke-width="1.5" stroke-linecap="round" stroke-linejoin="round"/>
<path d="M32.1693 206.592C32.1693 206.592 55.7768 180.266 70.2564 165.099C76.9521 158.086 85.0494 168.876 81.3953 173.24C72.8783 183.413 63.394 191.936 63.5539 205.044C63.6626 213.951 74.6485 223.641 69.6717 236.313C63.0923 253.065 64.9135 275.058 64.9135 275.058C64.9135 276.753 63.5492 278.117 61.8546 278.117H27.5273C25.8328 278.117 24.5383 276.752 24.4685 275.058L23.1089 242.091C23.0378 240.398 -23.7186 218.553 32.9652 152.024" stroke="white" stroke-width="1.5" stroke-linecap="round" stroke-linejoin="round"/>
<path d="M265.303 206.592C265.303 206.592 241.696 180.266 227.216 165.099C220.52 158.086 212.423 168.876 216.077 173.24C224.594 183.413 234.078 191.936 233.919 205.044C233.81 213.951 222.824 223.641 227.801 236.313C234.38 253.065 232.559 275.058 232.559 275.058C232.559 276.753 233.923 278.117 235.618 278.117H269.945C271.64 278.117 272.934 276.752 273.004 275.058L274.364 242.091C274.435 240.398 321.191 218.553 264.507 152.024" stroke="white" stroke-width="1.5" stroke-linecap="round" stroke-linejoin="round"/>
<path d="M61.0801 46.3927H136.946H61.0801Z" fill="#1A1A1A"/>
<path d="M61.0801 46.3927H136.946" stroke="white" stroke-width="1.5" stroke-linecap="round" stroke-linejoin="round"/>
<path d="M61.23 61.1562H136.819H61.23Z" fill="#1A1A1A"/>
<path d="M61.23 61.1562H136.819" stroke="white" stroke-width="1.5" stroke-linecap="round" stroke-linejoin="round"/>
<path d="M61.23 77.6914H136.819H61.23Z" fill="#1A1A1A"/>
<path d="M61.23 77.6914H136.819" stroke="white" stroke-width="1.5" stroke-linecap="round" stroke-linejoin="round"/>
<path d="M61.23 93.2423H136.819H61.23Z" fill="#1A1A1A"/>
<path d="M61.23 93.2423H136.819" stroke="white" stroke-width="1.5" stroke-linecap="round" stroke-linejoin="round"/>
<path d="M61.23 108.4H136.819H61.23Z" fill="#1A1A1A"/>
<path d="M61.23 108.4H136.819" stroke="white" stroke-width="1.5" stroke-linecap="round" stroke-linejoin="round"/>
<path d="M61.23 125.328H136.819H61.23Z" fill="#1A1A1A"/>
<path d="M61.23 125.328H136.819" stroke="white" stroke-width="1.5" stroke-linecap="round" stroke-linejoin="round"/>
<path d="M61.23 140.289H136.819H61.23Z" fill="#1A1A1A"/>
<path d="M61.23 140.289H136.819" stroke="white" stroke-width="1.5" stroke-linecap="round" stroke-linejoin="round"/>
<path d="M61.23 155.84H136.819H61.23Z" fill="#1A1A1A"/>
<path d="M61.23 155.84H136.819" stroke="white" stroke-width="1.5" stroke-linecap="round" stroke-linejoin="round"/>
<path d="M87.0959 174.343H136.955H87.0959Z" fill="#1A1A1A"/>
<path d="M87.0959 174.343H136.955" stroke="white" stroke-width="1.5" stroke-linecap="round" stroke-linejoin="round"/>
<path d="M158.512 46.3927H234.292H158.512Z" fill="#1A1A1A"/>
<path d="M158.512 46.3927H234.292" stroke="white" stroke-width="1.5" stroke-linecap="round" stroke-linejoin="round"/>
<path d="M158.664 61.1562H234.253H158.664Z" fill="#1A1A1A"/>
<path d="M158.664 61.1562H234.253" stroke="white" stroke-width="1.5" stroke-linecap="round" stroke-linejoin="round"/>
<path d="M158.664 77.6914H234.253H158.664Z" fill="#1A1A1A"/>
<path d="M158.664 77.6914H234.253" stroke="white" stroke-width="1.5" stroke-linecap="round" stroke-linejoin="round"/>
<path d="M158.664 93.2423H234.253H158.664Z" fill="#1A1A1A"/>
<path d="M158.664 93.2423H234.253" stroke="white" stroke-width="1.5" stroke-linecap="round" stroke-linejoin="round"/>
<path d="M158.664 108.4H234.253H158.664Z" fill="#1A1A1A"/>
<path d="M158.664 108.4H234.253" stroke="white" stroke-width="1.5" stroke-linecap="round" stroke-linejoin="round"/>
<path d="M158.664 125.328H234.253H158.664Z" fill="#1A1A1A"/>
<path d="M158.664 125.328H234.253" stroke="white" stroke-width="1.5" stroke-linecap="round" stroke-linejoin="round"/>
<path d="M158.664 140.289H234.253H158.664Z" fill="#1A1A1A"/>
<path d="M158.664 140.289H234.253" stroke="white" stroke-width="1.5" stroke-linecap="round" stroke-linejoin="round"/>
<path d="M158.664 155.84H234.253H158.664Z" fill="#1A1A1A"/>
<path d="M158.664 155.84H234.253" stroke="white" stroke-width="1.5" stroke-linecap="round" stroke-linejoin="round"/>
<path d="M158.503 174.343H208.408H158.503Z" fill="#1A1A1A"/>
<path d="M158.503 174.343H208.408" stroke="white" stroke-width="1.5" stroke-linecap="round" stroke-linejoin="round"/>
</svg>
