<svg width="300" height="300" viewBox="0 0 300 300" fill="none" xmlns="http://www.w3.org/2000/svg">
<path d="M243.825 27.0064L260.819 26.9991V284.091C260.819 284.772 260.27 285.32 259.588 285.32H37.7327C37.051 285.32 36.5022 284.772 36.5022 284.091V11.2231C36.5022 10.5414 37.051 9.99257 37.7327 9.99257H240.995C241.677 9.99257 242.225 10.5413 242.225 11.2231V253.382L66.1096 253.284C66.1096 253.284 62.5544 253.323 60.7774 253.281C44.658 252.898 37.486 262.018 37.486 262.018" stroke="white" stroke-width="2" stroke-linecap="round" stroke-linejoin="round"/>
<path d="M59.137 251.341V10.2813" stroke="white" stroke-width="2" stroke-linecap="round" stroke-linejoin="round"/>
<path d="M113.824 269.959H247.808" stroke="white" stroke-width="2" stroke-linecap="round" stroke-linejoin="round"/>
<path d="M98.1816 253.101V272.557C98.1816 273.239 97.5885 274.027 96.951 273.787L84.3559 269.051L71.5685 273.787C70.9293 274.024 70.3381 273.239 70.3381 272.557V253.101" stroke="white" stroke-width="2" stroke-linecap="round" stroke-linejoin="round"/>
<path d="M221.234 36.0121H80.4458C79.767 36.0121 79.2168 36.5622 79.2168 37.2409V167.638C79.2168 168.317 79.767 168.868 80.4458 168.868H221.234C221.913 168.868 222.463 168.317 222.463 167.638V37.2409C222.463 36.5622 221.913 36.0121 221.234 36.0121Z" stroke="white" stroke-width="2" stroke-linecap="round" stroke-linejoin="round"/>
<path d="M214.073 202.397H86.6193C82.1344 202.397 78.4985 206.033 78.4985 210.518V212.145C78.4985 216.63 82.1344 220.265 86.6193 220.265H214.073C218.558 220.265 222.194 216.63 222.194 212.145V210.518C222.194 206.033 218.558 202.397 214.073 202.397Z" stroke="white" stroke-width="2" stroke-linecap="round" stroke-linejoin="round"/>
<path d="M99.914 137.62H90.0288L118.62 59.7547H128.354L156.943 137.62H147.061L123.789 72.0731H123.181L99.914 137.62ZM103.564 107.204H143.409V115.568H103.564V107.204ZM185.04 138.989C181.343 138.989 177.981 138.292 174.967 136.898C171.949 135.479 169.553 133.438 167.781 130.777C166.004 128.09 165.12 124.845 165.12 121.044C165.12 117.697 165.777 114.985 167.098 112.907C168.414 110.803 170.176 109.156 172.38 107.964C174.585 106.774 177.019 105.886 179.68 105.303C182.369 104.695 185.068 104.213 187.779 103.858C191.328 103.402 194.204 103.06 196.409 102.832C198.641 102.579 200.262 102.161 201.277 101.577C202.313 100.994 202.834 99.9806 202.834 98.5359V98.2315C202.834 94.4801 201.808 91.5653 199.756 89.4869C197.728 87.4086 194.646 86.369 190.517 86.369C186.232 86.369 182.875 87.3067 180.44 89.1827C178.006 91.0583 176.297 93.061 175.31 95.1899L166.793 92.1484C168.311 88.5996 170.339 85.8369 172.876 83.8598C175.434 81.8575 178.222 80.4634 181.24 79.6775C184.279 78.8664 187.273 78.461 190.213 78.461C192.088 78.461 194.243 78.6887 196.677 79.1453C199.133 79.5764 201.504 80.476 203.786 81.8447C206.093 83.2136 208.007 85.2793 209.528 88.0419C211.046 90.805 211.807 94.5056 211.807 99.1439V137.621H202.834V129.712H202.377C201.768 130.98 200.757 132.336 199.338 133.781C197.919 135.225 196.03 136.455 193.673 137.468C191.313 138.483 188.437 138.989 185.04 138.989ZM186.409 130.929C189.958 130.929 192.948 130.232 195.382 128.838C197.841 127.444 199.692 125.644 200.934 123.439C202.2 121.234 202.834 118.914 202.834 116.481V108.269C202.455 108.726 201.618 109.142 200.325 109.524C199.059 109.878 197.587 110.195 195.917 110.474C194.268 110.727 192.658 110.955 191.087 111.158C189.541 111.336 188.285 111.489 187.322 111.615C184.991 111.92 182.811 112.413 180.784 113.098C178.781 113.756 177.16 114.758 175.915 116.101C174.701 117.419 174.093 119.219 174.093 121.5C174.093 124.618 175.247 126.975 177.553 128.572C179.885 130.144 182.836 130.929 186.409 130.929Z" fill="white"/>
</svg>
